<svg width="97" height="112" viewBox="0 0 97 112" fill="none" xmlns="http://www.w3.org/2000/svg">
<path d="M6.11328 107H1.30859V92.8594H6.19141C10.4102 92.8594 12.959 95.5059 12.9688 99.9102C12.959 104.334 10.4102 107 6.11328 107ZM3.84766 104.793H5.97656C8.93555 104.803 10.4297 103.172 10.4297 99.9102C10.4297 96.668 8.93555 95.0566 6.05469 95.0664H3.84766V104.793ZM16.25 107H13.5352L18.5156 92.8594H21.6406L26.6406 107H23.9258L22.7441 103.504H17.4219L16.25 107ZM18.1055 101.453H22.0605L20.1367 95.75H20.0195L18.1055 101.453ZM39.9414 92.8594V107H37.6758L30.9766 97.332H30.8594V107H28.3203V92.8594H30.625L37.2852 102.527H37.4219V92.8594H39.9414ZM56.7773 97.3711C56.3184 95.8672 55.1562 94.9492 53.4375 94.9492C51.1621 94.9492 49.502 96.7266 49.5117 99.9102C49.502 103.123 51.1328 104.91 53.4961 104.91C55.6348 104.91 56.9922 103.621 57.0312 101.609H53.75V99.5977H59.4922V101.297C59.4922 104.939 56.9922 107.195 53.4961 107.195C49.5898 107.195 46.9434 104.412 46.9531 99.9297C46.9434 95.3887 49.7168 92.6641 53.418 92.6641C56.5332 92.6641 58.9453 94.5977 59.375 97.3711H56.7773ZM61.7969 107V92.8594H70.9961V94.9883H64.3359V98.8555H70.5078V100.984H64.3359V104.852H71.0352V107H61.7969ZM73.4375 107V92.8594H82.6367V94.9883H75.9766V98.8555H82.1484V100.984H75.9766V104.852H82.6758V107H73.4375ZM85.0781 107V92.8594H87.6172V99.3633H87.8125L93.3398 92.8594H96.4453L90.9766 99.207L96.5039 107H93.4375L89.1992 100.926L87.6172 102.781V107H85.0781Z" fill="#2A5FC5"/>
<g clip-path="url(#clip0_164_1177)">
<path d="M15 35.6599V57.5275C15 60.4157 15.3523 63.2154 16.7319 65.8236C19.0509 70.2296 23.4395 72.7788 28.3564 72.9262C31.9083 73.0293 35.4749 72.9262 39.0268 72.9262C42.8575 72.9262 46.6883 72.9262 50.5191 72.9262C57.3294 72.9114 63.6406 70.6864 68.9978 66.5309C82.09 56.3781 86.4198 36.8977 80.1673 21.7053C76.4392 12.643 70.0693 5.46675 60.896 1.8418C55.5975 -0.265387 49.9026 -0.000147227 44.3106 -0.000147227C39.7019 -0.000147227 35.284 4.08161 35.5042 8.85593C35.7244 13.6303 39.379 17.6973 44.3106 17.6973H49.3743C49.9173 17.6973 50.4604 17.6973 51.0035 17.6973C51.6199 17.6973 52.2363 17.7562 52.8528 17.7857C54.2618 17.8594 51.9575 17.6825 51.8694 17.6531C52.2657 17.8152 52.7794 17.8152 53.205 17.9183C53.9389 18.0951 54.6581 18.3456 55.3773 18.5667C56.0084 18.7582 56.5368 19.3034 54.5407 18.1835C54.8049 18.3309 55.0984 18.434 55.3626 18.5667C55.9791 18.8614 56.5662 19.2003 57.1532 19.5539C57.4761 19.7602 57.799 19.9665 58.1073 20.1728C58.7824 20.6444 59.3402 21.6169 57.799 19.8929C58.7237 20.9391 59.8979 21.7643 60.8226 22.8252C61.0134 23.0463 61.2189 23.3705 61.439 23.562C60.1327 22.4569 60.4997 22.2653 60.94 22.9137C61.3803 23.562 61.8647 24.2546 62.2756 24.9472C62.6866 25.6397 63.0976 26.3913 63.4498 27.128C63.5966 27.4227 63.714 27.7469 63.8755 28.0416C62.8187 26.0818 63.3617 26.7596 63.5672 27.3343C64.1396 28.9847 64.668 30.6056 65.0056 32.3297C65.079 32.6833 65.1377 33.0223 65.1964 33.3759C65.4753 34.8642 65.079 32.7718 65.1083 32.6244C64.9616 33.3759 65.2845 34.5695 65.3138 35.3505C65.3579 36.824 65.2698 38.2829 65.1671 39.7564C65.0496 41.6426 65.4753 38.0471 65.2404 39.2849C65.1524 39.7269 65.0937 40.1543 65.0056 40.5963C64.8735 41.2889 64.7121 41.9667 64.5213 42.6446C64.3011 43.4698 64.0369 44.295 63.7434 45.1054C63.6259 45.4296 63.4792 45.7391 63.3764 46.0632C64.169 43.6761 63.7287 45.2086 63.4498 45.798C62.804 47.1242 62.0555 48.4062 61.2189 49.6292C61.0427 49.8797 60.8079 50.145 60.6464 50.4102C61.6592 48.6272 61.5858 49.2461 61.1308 49.7471C60.5437 50.3955 59.986 51.0439 59.3548 51.648C58.8852 52.1048 58.1953 52.5322 57.7844 53.0479C57.8578 52.9595 59.6044 51.7512 58.4595 52.5027C58.21 52.6648 57.9605 52.8563 57.6963 53.0184C57.0652 53.431 56.4047 53.8289 55.7295 54.1678C55.4654 54.3004 55.1865 54.433 54.9076 54.5657C53.4105 55.3319 56.9478 53.8731 55.3333 54.3594C54.7608 54.5362 54.1884 54.7425 53.6013 54.9046C52.6767 55.1403 50.4164 55.1109 53.2491 55.0961C52.4271 55.0961 51.6052 55.2288 50.7833 55.2288C47.7011 55.2582 44.6041 55.2288 41.5219 55.2288H29.7801C29.3397 55.2288 28.8847 55.1993 28.4297 55.2288C28.3417 55.2288 28.2389 55.214 28.1509 55.2288C28.1509 55.2288 28.1362 55.2288 28.1215 55.2288C28.8847 55.1993 29.5892 55.3614 30.2351 55.7298C30.9983 56.0982 31.0863 56.1276 30.4992 55.8034C31.3212 56.3192 31.8936 56.8939 32.3779 57.7191C31.5267 56.275 32.8036 59.4431 32.5394 58.3085C32.2752 57.1739 32.5394 60.7399 32.5834 58.839C32.5834 58.5295 32.5834 58.2348 32.5834 57.9254V35.6305C32.5834 31.0035 28.5325 26.5681 23.777 26.7891C19.0216 27.0101 15 30.7088 15 35.6599Z" fill="url(#paint0_linear_164_1177)"/>
<path d="M15.0001 35.6601V51.2356C15.0001 53.6669 14.9854 56.0983 15.0001 58.5297C15.0881 66.1038 20.3426 72.6906 28.1656 72.9263C33.332 73.0884 38.5131 72.9263 43.6795 72.9263C46.0279 72.9263 48.3763 72.9263 50.7246 72.9263C55.6269 72.9116 60.2943 71.7033 64.6534 69.4487C76.498 63.3187 82.956 49.4526 82.956 36.4705C82.956 31.8436 78.9051 27.4082 74.1496 27.6292C69.3942 27.8502 65.3432 31.5194 65.3432 36.4705C65.3432 37.4873 65.2992 38.4893 65.2111 39.4913C65.1818 39.7566 65.1231 40.0365 65.1231 40.3018C65.1231 40.3607 65.446 38.3125 65.2552 39.285C65.1231 39.9776 65.0057 40.6849 64.8589 41.3775C64.6094 42.4826 64.3012 43.5583 63.9342 44.634C63.7728 45.1203 63.5379 45.5918 63.3912 46.0634C63.4352 45.9308 64.3158 44.0446 63.67 45.3413C63.5233 45.636 63.3912 45.9455 63.2297 46.2402C62.7454 47.198 62.217 48.1264 61.6299 49.0105C61.3657 49.4084 61.0575 49.8062 60.7933 50.2041C60.3089 50.9703 61.4831 49.3347 61.4391 49.3641C61.1602 49.5704 60.9107 50.0125 60.6612 50.2778C59.986 51.044 59.2668 51.766 58.5036 52.4439C58.3275 52.5912 58.1367 52.7386 57.9752 52.9007C57.3441 53.5196 58.9146 52.2081 58.8559 52.2376C58.3275 52.5176 57.8578 52.9596 57.3441 53.2838C56.5075 53.8143 55.6122 54.2121 54.7462 54.6837C53.9536 55.111 55.8911 54.2121 55.803 54.2269C55.5975 54.2564 55.3627 54.4037 55.1719 54.4627C54.5994 54.6395 54.027 54.831 53.4399 54.9784C52.9996 55.0815 52.5299 55.1405 52.1043 55.2584C51.253 55.5089 53.3959 55.111 53.3078 55.111C53.0143 55.111 52.6767 55.1847 52.3832 55.1994C51.8841 55.2289 51.3704 55.2436 50.8714 55.2436C49.0221 55.2436 47.1874 55.2436 45.3381 55.2436C39.8341 55.2436 34.3154 55.0963 28.8261 55.2436C28.7087 55.2436 28.3417 55.17 28.239 55.2436H28.1656C28.0922 54.9637 31.1745 56.1867 30.9103 56.0394C29.9122 55.4499 31.468 56.4962 31.6148 56.6435C31.5707 56.5993 32.6715 58.3234 32.2753 57.5277C31.8496 56.6877 32.6715 58.677 32.6422 58.5591C32.2165 57.0561 32.5688 60.519 32.6128 58.8833C32.6128 58.7507 32.6128 58.6033 32.6128 58.4707C32.5982 56.3488 32.6128 54.2121 32.6128 52.0902V35.6453C32.6128 31.0184 28.5619 26.583 23.8064 26.804C19.051 27.025 15.0001 30.7089 15.0001 35.6601Z" fill="url(#paint1_linear_164_1177)"/>
<path d="M15 35.6601V57.6161C15 60.519 15.4403 63.2745 16.776 65.9122C19.0069 70.3329 23.7036 72.8674 28.5325 72.9263C32.3046 72.9705 36.0913 72.9263 39.8634 72.9263H50.9888C55.5975 72.9263 60.0153 68.8593 59.7952 64.085C59.575 59.3107 55.9204 55.2436 50.9888 55.2436H39.4377C35.5776 55.2436 31.6734 55.4057 27.8133 55.2289L30.1617 55.5383C29.7947 55.4794 29.4865 55.4057 29.1489 55.2878L31.2478 56.172C30.9102 56.0246 30.6313 55.8625 30.3231 55.6562L32.0991 57.0414C31.7175 56.7319 31.3946 56.393 31.0863 56.0099L32.466 57.7929C32.2458 57.4687 32.0697 57.1593 31.9083 56.8056L32.7889 58.9128C32.5834 58.397 32.4513 57.9108 32.3633 57.3656L32.6715 59.7232C32.5394 58.3676 32.6128 56.9824 32.6128 55.612V35.6453C32.6128 31.0184 28.5618 26.583 23.8064 26.804C19.0509 27.025 15 30.7089 15 35.6601Z" fill="#2A5FC5"/>
<path opacity="0.5" d="M23.8211 17.6532C28.6604 17.6532 32.5834 13.7146 32.5834 8.85608C32.5834 3.99755 28.6604 0.0589418 23.8211 0.0589418C18.9818 0.0589418 15.0587 3.99755 15.0587 8.85608C15.0587 13.7146 18.9818 17.6532 23.8211 17.6532Z" fill="#79A1E6"/>
</g>
<defs>
<linearGradient id="paint0_linear_164_1177" x1="49.0073" y1="5.90882" x2="49.0073" y2="67.0319" gradientUnits="userSpaceOnUse">
<stop stop-color="#EBF1FA"/>
<stop offset="1" stop-color="#2A5FC5"/>
</linearGradient>
<linearGradient id="paint1_linear_164_1177" x1="48.978" y1="35.6601" x2="48.978" y2="67.0321" gradientUnits="userSpaceOnUse">
<stop stop-color="#79A1E6"/>
<stop offset="1" stop-color="#2A5FC5"/>
</linearGradient>
<clipPath id="clip0_164_1177">
<rect width="68" height="73" fill="white" transform="translate(15)"/>
</clipPath>
</defs>
</svg>
