<svg width="27" height="24" viewBox="0 0 27 24" fill="none" xmlns="http://www.w3.org/2000/svg">
<mask id="path-1-inside-1_441_1575" fill="white">
<path fill-rule="evenodd" clip-rule="evenodd" d="M4.79172 7.70825C2.11138 7.91585 0 10.1964 0 12.9791C0 15.7617 2.11138 18.0423 4.79172 18.2499V7.70825Z"/>
</mask>
<path d="M4.79172 7.70825H6.29172V6.08758L4.67589 6.21273L4.79172 7.70825ZM4.79172 18.2499L4.67589 19.7454L6.29172 19.8705V18.2499H4.79172ZM1.5 12.9791C1.5 10.963 3.02507 9.34957 4.90755 9.20377L4.67589 6.21273C1.19769 6.48212 -1.5 9.42971 -1.5 12.9791H1.5ZM4.90755 16.7543C3.02507 16.6085 1.5 14.9951 1.5 12.9791H-1.5C-1.5 16.5284 1.19769 19.476 4.67589 19.7454L4.90755 16.7543ZM6.29172 18.2499V7.70825H3.29172V18.2499H6.29172Z" fill="#939393" mask="url(#path-1-inside-1_441_1575)"/>
<mask id="path-3-inside-2_441_1575" fill="white">
<path fill-rule="evenodd" clip-rule="evenodd" d="M22.0413 18.2483C24.7216 18.0407 26.833 15.7602 26.833 12.9775C26.833 10.1948 24.7216 7.91429 22.0413 7.70669L22.0413 18.2483Z"/>
</mask>
<path d="M22.0413 18.2483L20.5413 18.2483L20.5413 19.869L22.1571 19.7438L22.0413 18.2483ZM22.0413 7.70669L22.1571 6.21117L20.5413 6.08602L20.5413 7.70669L22.0413 7.70669ZM25.333 12.9775C25.333 14.9935 23.8079 16.607 21.9255 16.7528L22.1571 19.7438C25.6353 19.4744 28.333 16.5268 28.333 12.9775L25.333 12.9775ZM21.9255 9.20221C23.8079 9.34801 25.333 10.9614 25.333 12.9775L28.333 12.9775C28.333 9.42815 25.6353 6.48056 22.1571 6.21117L21.9255 9.20221ZM20.5413 7.70669L20.5413 18.2483L23.5413 18.2483L23.5413 7.70669L20.5413 7.70669Z" fill="#939393" mask="url(#path-3-inside-2_441_1575)"/>
<path d="M22.2632 8.8066C22.3405 9.21354 22.7331 9.48074 23.14 9.40343C23.5469 9.32611 23.8141 8.93355 23.7368 8.52661L22.2632 8.8066ZM4.57935 8.74534C4.91984 5.51964 8.48293 1.75 13.4168 1.75V0.25C7.76521 0.25 3.51381 4.55047 3.08764 8.58788L4.57935 8.74534ZM13.4168 1.75C18.3237 1.75 21.5589 5.09977 22.2632 8.8066L23.7368 8.52661C22.9078 4.16333 19.0952 0.25 13.4168 0.25V1.75Z" fill="#939393"/>
<path fill-rule="evenodd" clip-rule="evenodd" d="M22.2745 17.0986C21.8795 18.5835 21.066 19.6088 19.8167 20.2856C19.518 20.4474 19.1917 20.5906 18.8368 20.7152C18.898 20.926 18.9307 21.1488 18.9307 21.3793C18.9307 21.7128 18.8621 22.0303 18.7383 22.3183C19.39 22.1346 19.9885 21.8984 20.5311 21.6045C22.1567 20.724 23.2268 19.3535 23.7241 17.4842L22.2745 17.0986Z" fill="#939393"/>
<rect x="11.75" y="19.75" width="6.43097" height="3.25858" rx="1.62929" stroke="#939393" stroke-width="1.5"/>
</svg>
