<svg width="23" height="24" viewBox="0 0 23 24" fill="none" xmlns="http://www.w3.org/2000/svg">
<path d="M21.9795 17.0664L20.086 8.17462C19.4217 4.04604 15.7796 1 11.4962 1C7.22039 1 3.57832 4.04604 2.91405 8.18208L1.02048 17.0664C0.860136 18.0817 1.66185 19 2.70789 19H20.2921C21.3382 19 22.1399 18.0817 21.9795 17.0664Z" fill="#A7ABB2" stroke="#A7ABB2" stroke-width="2" stroke-miterlimit="10"/>
<path d="M8.02917 19C8.02187 19.1145 8 19.2214 8 19.3359C8 21.3588 9.56771 23 11.5 23C13.4323 23 15 21.3588 15 19.3359C15 19.2214 14.9781 19.1145 14.9708 19H8.02917Z" stroke="#A7ABB2" stroke-width="2" stroke-miterlimit="10"/>
</svg>
