<svg width="20" height="19" viewBox="0 0 20 19" fill="none" xmlns="http://www.w3.org/2000/svg">
<path d="M12.5267 7.08182C14.4957 7.08182 16.0919 5.4965 16.0919 3.54091C16.0919 1.58532 14.4957 0 12.5267 0C10.5576 0 8.96143 1.58532 8.96143 3.54091C8.96143 5.4965 10.5576 7.08182 12.5267 7.08182Z" fill="url(#paint0_linear_443_2283)"/>
<path d="M19.3211 19C19.7191 19 20.0389 18.5595 19.9962 18.05C19.6267 13.2482 16.457 9.5 12.6122 9.5C8.76742 9.5 5.59777 13.2482 5.22111 18.05C5.17847 18.5595 5.49827 19 5.89626 19H19.3211Z" fill="url(#paint1_linear_443_2283)"/>
<path d="M7.3094 7.08182C9.27843 7.08182 10.8747 5.4965 10.8747 3.54091C10.8747 1.58532 9.27843 0 7.3094 0C5.34036 0 3.74414 1.58532 3.74414 3.54091C3.74414 5.4965 5.34036 7.08182 7.3094 7.08182Z" fill="url(#paint2_linear_443_2283)"/>
<path d="M14.1038 19C14.5018 19 14.8216 18.5595 14.7789 18.05C14.4094 13.2482 11.2397 9.5 7.39494 9.5C3.55014 9.5 0.380485 13.2482 0.00382241 18.05C-0.0388186 18.5595 0.280989 19 0.678973 19H14.1038Z" fill="url(#paint3_linear_443_2283)"/>
<defs>
<linearGradient id="paint0_linear_443_2283" x1="11.7507" y1="0.559091" x2="13.5553" y2="7.37048" gradientUnits="userSpaceOnUse">
<stop stop-color="#2A5FC5"/>
<stop offset="1" stop-color="#023D9E"/>
</linearGradient>
<linearGradient id="paint1_linear_443_2283" x1="11" y1="10.25" x2="12.6285" y2="19.7494" gradientUnits="userSpaceOnUse">
<stop stop-color="#2A5FC5"/>
<stop offset="1" stop-color="#023D9E"/>
</linearGradient>
<linearGradient id="paint2_linear_443_2283" x1="5.67355" y1="0.186364" x2="8.45437" y2="8.18349" gradientUnits="userSpaceOnUse">
<stop stop-color="#79A1E6"/>
<stop offset="1" stop-color="#2A5FC5"/>
</linearGradient>
<linearGradient id="paint3_linear_443_2283" x1="4" y1="9.75" x2="6.57525" y2="21.1956" gradientUnits="userSpaceOnUse">
<stop stop-color="#79A1E6"/>
<stop offset="1" stop-color="#2A5FC5"/>
</linearGradient>
</defs>
</svg>
