<svg width="45" height="19" viewBox="0 0 45 19" fill="none" xmlns="http://www.w3.org/2000/svg">
<path d="M9.5 0.5H35.5C40.4706 0.5 44.5 4.52944 44.5 9.5C44.5 14.4706 40.4706 18.5 35.5 18.5H9.5C4.52944 18.5 0.5 14.4706 0.5 9.5C0.5 4.52944 4.52944 0.5 9.5 0.5Z" fill="white" stroke="#79A1E6"/>
<path d="M35.5 0.5H9.5C4.52944 0.5 0.5 4.52944 0.5 9.5C0.5 14.4706 4.52944 18.5 9.5 18.5H35.5C40.4706 18.5 44.5 14.4706 44.5 9.5C44.5 4.52944 40.4706 0.5 35.5 0.5Z" stroke="#79A1E6"/>
<mask id="path-3-inside-1_152_2027" fill="white">
<path d="M21.877 9.58203H20.6582V3.7041H21.877V9.58203ZM12.6094 8.27441C12.8887 8.27441 13.3499 8.27018 13.9932 8.26172V5.40527H12.9141V4.45312H19.0967V5.40527H18.0049V8.09668C18.5762 8.05859 19.1136 8.00781 19.6172 7.94434L19.668 8.82031C18.6566 8.97266 17.5711 9.08057 16.4116 9.14404C15.2521 9.20752 14.1011 9.23926 12.9585 9.23926H12.749L12.6094 8.27441ZM14.3232 10.1025H21.877V12.9209H15.542V14H22.2705V14.9648H14.3613V12.0449H20.6836V11.0547H14.3232V10.1025ZM15.1484 8.23633C15.9144 8.21094 16.4814 8.18766 16.8496 8.1665V5.40527H15.1484V8.23633ZM29.4814 4.70703C29.4814 5.20215 29.6634 5.67822 30.0273 6.13525C30.3955 6.59229 30.8906 6.98161 31.5127 7.30322C32.139 7.62484 32.8203 7.83431 33.5566 7.93164L33.0869 8.92188C32.4691 8.82454 31.883 8.65527 31.3286 8.41406C30.7743 8.17285 30.2834 7.87451 29.856 7.51904C29.4328 7.15934 29.0985 6.75944 28.853 6.31934C28.6076 6.75944 28.2712 7.15934 27.8438 7.51904C27.4206 7.87451 26.9339 8.17285 26.3838 8.41406C25.8337 8.65104 25.2497 8.82031 24.6318 8.92188L24.1494 7.93164C24.8857 7.83431 25.5649 7.62695 26.187 7.30957C26.8091 6.99219 27.3042 6.60498 27.6724 6.14795C28.0405 5.68669 28.2246 5.20638 28.2246 4.70703V4.08496H29.4814V4.70703ZM23.6543 10.0391H34.0264V11.0293H29.4053V15.0791H28.2246V11.0293H23.6543V10.0391Z"/>
</mask>
<path d="M21.877 9.58203H20.6582V3.7041H21.877V9.58203ZM12.6094 8.27441C12.8887 8.27441 13.3499 8.27018 13.9932 8.26172V5.40527H12.9141V4.45312H19.0967V5.40527H18.0049V8.09668C18.5762 8.05859 19.1136 8.00781 19.6172 7.94434L19.668 8.82031C18.6566 8.97266 17.5711 9.08057 16.4116 9.14404C15.2521 9.20752 14.1011 9.23926 12.9585 9.23926H12.749L12.6094 8.27441ZM14.3232 10.1025H21.877V12.9209H15.542V14H22.2705V14.9648H14.3613V12.0449H20.6836V11.0547H14.3232V10.1025ZM15.1484 8.23633C15.9144 8.21094 16.4814 8.18766 16.8496 8.1665V5.40527H15.1484V8.23633ZM29.4814 4.70703C29.4814 5.20215 29.6634 5.67822 30.0273 6.13525C30.3955 6.59229 30.8906 6.98161 31.5127 7.30322C32.139 7.62484 32.8203 7.83431 33.5566 7.93164L33.0869 8.92188C32.4691 8.82454 31.883 8.65527 31.3286 8.41406C30.7743 8.17285 30.2834 7.87451 29.856 7.51904C29.4328 7.15934 29.0985 6.75944 28.853 6.31934C28.6076 6.75944 28.2712 7.15934 27.8438 7.51904C27.4206 7.87451 26.9339 8.17285 26.3838 8.41406C25.8337 8.65104 25.2497 8.82031 24.6318 8.92188L24.1494 7.93164C24.8857 7.83431 25.5649 7.62695 26.187 7.30957C26.8091 6.99219 27.3042 6.60498 27.6724 6.14795C28.0405 5.68669 28.2246 5.20638 28.2246 4.70703V4.08496H29.4814V4.70703ZM23.6543 10.0391H34.0264V11.0293H29.4053V15.0791H28.2246V11.0293H23.6543V10.0391Z" fill="#FF5E23"/>
<path d="M21.877 9.58203V10.582H22.877V9.58203H21.877ZM20.6582 9.58203H19.6582V10.582H20.6582V9.58203ZM20.6582 3.7041V2.7041H19.6582V3.7041H20.6582ZM21.877 3.7041H22.877V2.7041H21.877V3.7041ZM12.6094 8.27441V7.27441H11.4542L11.6197 8.41766L12.6094 8.27441ZM13.9932 8.26172L14.0063 9.26163L14.9932 9.24865V8.26172H13.9932ZM13.9932 5.40527H14.9932V4.40527H13.9932V5.40527ZM12.9141 5.40527H11.9141V6.40527H12.9141V5.40527ZM12.9141 4.45312V3.45312H11.9141V4.45312H12.9141ZM19.0967 4.45312H20.0967V3.45312H19.0967V4.45312ZM19.0967 5.40527V6.40527H20.0967V5.40527H19.0967ZM18.0049 5.40527V4.40527H17.0049V5.40527H18.0049ZM18.0049 8.09668H17.0049V9.16557L18.0714 9.09447L18.0049 8.09668ZM19.6172 7.94434L20.6155 7.88646L20.5536 6.81839L19.4921 6.95219L19.6172 7.94434ZM19.668 8.82031L19.8169 9.80916L20.7191 9.67326L20.6663 8.76244L19.668 8.82031ZM12.749 9.23926L11.7593 9.3825L11.8833 10.2393H12.749V9.23926ZM14.3232 10.1025V9.10254H13.3232V10.1025H14.3232ZM21.877 10.1025H22.877V9.10254H21.877V10.1025ZM21.877 12.9209V13.9209H22.877V12.9209H21.877ZM15.542 12.9209V11.9209H14.542V12.9209H15.542ZM15.542 14H14.542V15H15.542V14ZM22.2705 14H23.2705V13H22.2705V14ZM22.2705 14.9648V15.9648H23.2705V14.9648H22.2705ZM14.3613 14.9648H13.3613V15.9648H14.3613V14.9648ZM14.3613 12.0449V11.0449H13.3613V12.0449H14.3613ZM20.6836 12.0449V13.0449H21.6836V12.0449H20.6836ZM20.6836 11.0547H21.6836V10.0547H20.6836V11.0547ZM14.3232 11.0547H13.3232V12.0547H14.3232V11.0547ZM15.1484 8.23633H14.1484V9.27003L15.1816 9.23578L15.1484 8.23633ZM16.8496 8.1665L16.907 9.16486L17.8496 9.11068V8.1665H16.8496ZM16.8496 5.40527H17.8496V4.40527H16.8496V5.40527ZM15.1484 5.40527V4.40527H14.1484V5.40527H15.1484ZM21.877 8.58203H20.6582V10.582H21.877V8.58203ZM21.6582 9.58203V3.7041H19.6582V9.58203H21.6582ZM20.6582 4.7041H21.877V2.7041H20.6582V4.7041ZM20.877 3.7041V9.58203H22.877V3.7041H20.877ZM12.6094 9.27441C12.8958 9.27441 13.3628 9.2701 14.0063 9.26163L13.98 7.26181C13.337 7.27027 12.8815 7.27441 12.6094 7.27441V9.27441ZM14.9932 8.26172V5.40527H12.9932V8.26172H14.9932ZM13.9932 4.40527H12.9141V6.40527H13.9932V4.40527ZM13.9141 5.40527V4.45312H11.9141V5.40527H13.9141ZM12.9141 5.45312H19.0967V3.45312H12.9141V5.45312ZM18.0967 4.45312V5.40527H20.0967V4.45312H18.0967ZM19.0967 4.40527H18.0049V6.40527H19.0967V4.40527ZM17.0049 5.40527V8.09668H19.0049V5.40527H17.0049ZM18.0714 9.09447C18.6598 9.05524 19.2169 9.0027 19.7422 8.93648L19.4921 6.95219C19.0103 7.01292 18.4925 7.06195 17.9384 7.09889L18.0714 9.09447ZM18.6189 8.00221L18.6696 8.87819L20.6663 8.76244L20.6155 7.88646L18.6189 8.00221ZM19.519 7.83147C18.5427 7.97852 17.489 8.08356 16.357 8.14554L16.4663 10.1425C17.6532 10.0776 18.7704 9.96679 19.8169 9.80916L19.519 7.83147ZM16.357 8.14554C15.2154 8.20803 14.0825 8.23926 12.9585 8.23926V10.2393C14.1196 10.2393 15.2889 10.207 16.4663 10.1425L16.357 8.14554ZM12.9585 8.23926H12.749V10.2393H12.9585V8.23926ZM13.7387 9.09601L13.5991 8.13117L11.6197 8.41766L11.7593 9.3825L13.7387 9.09601ZM14.3232 11.1025H21.877V9.10254H14.3232V11.1025ZM20.877 10.1025V12.9209H22.877V10.1025H20.877ZM21.877 11.9209H15.542V13.9209H21.877V11.9209ZM14.542 12.9209V14H16.542V12.9209H14.542ZM15.542 15H22.2705V13H15.542V15ZM21.2705 14V14.9648H23.2705V14H21.2705ZM22.2705 13.9648H14.3613V15.9648H22.2705V13.9648ZM15.3613 14.9648V12.0449H13.3613V14.9648H15.3613ZM14.3613 13.0449H20.6836V11.0449H14.3613V13.0449ZM21.6836 12.0449V11.0547H19.6836V12.0449H21.6836ZM20.6836 10.0547H14.3232V12.0547H20.6836V10.0547ZM15.3232 11.0547V10.1025H13.3232V11.0547H15.3232ZM15.1816 9.23578C15.9489 9.21034 16.5261 9.18675 16.907 9.16486L16.7922 7.16815C16.4368 7.18858 15.8798 7.21153 15.1153 7.23688L15.1816 9.23578ZM17.8496 8.1665V5.40527H15.8496V8.1665H17.8496ZM16.8496 4.40527H15.1484V6.40527H16.8496V4.40527ZM14.1484 5.40527V8.23633H16.1484V5.40527H14.1484ZM30.0273 6.13525L29.2451 6.75819L29.2486 6.76258L30.0273 6.13525ZM31.5127 7.30322L31.0534 8.19153L31.0559 8.19279L31.5127 7.30322ZM33.5566 7.93164L34.4601 8.36022L35.0484 7.12013L33.6877 6.94026L33.5566 7.93164ZM33.0869 8.92188L32.9313 9.90969L33.6699 10.0261L33.9904 9.35046L33.0869 8.92188ZM29.856 7.51904L29.2083 8.28103L29.2165 8.28789L29.856 7.51904ZM28.853 6.31934L29.7264 5.83227L28.853 4.26624L27.9797 5.83227L28.853 6.31934ZM27.8438 7.51904L28.4869 8.28475L28.4877 8.28415L27.8438 7.51904ZM26.3838 8.41406L26.7794 9.33249L26.7853 9.3299L26.3838 8.41406ZM24.6318 8.92188L23.7328 9.35984L24.0591 10.0295L24.794 9.90863L24.6318 8.92188ZM24.1494 7.93164L24.0184 6.94026L22.6427 7.12211L23.2504 8.36961L24.1494 7.93164ZM27.6724 6.14795L28.4511 6.77529L28.4539 6.77177L27.6724 6.14795ZM28.2246 4.08496V3.08496H27.2246V4.08496H28.2246ZM29.4814 4.08496H30.4814V3.08496H29.4814V4.08496ZM23.6543 10.0391V9.03906H22.6543V10.0391H23.6543ZM34.0264 10.0391H35.0264V9.03906H34.0264V10.0391ZM34.0264 11.0293V12.0293H35.0264V11.0293H34.0264ZM29.4053 11.0293V10.0293H28.4053V11.0293H29.4053ZM29.4053 15.0791V16.0791H30.4053V15.0791H29.4053ZM28.2246 15.0791H27.2246V16.0791H28.2246V15.0791ZM28.2246 11.0293H29.2246V10.0293H28.2246V11.0293ZM23.6543 11.0293H22.6543V12.0293H23.6543V11.0293ZM28.4814 4.70703C28.4814 5.4675 28.7666 6.15731 29.2451 6.75818L30.8096 5.51233C30.5602 5.19914 30.4814 4.93679 30.4814 4.70703H28.4814ZM29.2486 6.76258C29.7191 7.3467 30.3314 7.8182 31.0534 8.19153L31.972 6.41492C31.4499 6.14501 31.0719 5.83787 30.8061 5.50792L29.2486 6.76258ZM31.0559 8.19279C31.7896 8.56958 32.5819 8.8115 33.4256 8.92302L33.6877 6.94026C33.0587 6.85712 32.4884 6.68009 31.9695 6.41366L31.0559 8.19279ZM32.6531 7.50306L32.1834 8.49329L33.9904 9.35046L34.4601 8.36022L32.6531 7.50306ZM33.2425 7.93406C32.7056 7.84947 32.2015 7.70331 31.7276 7.4971L30.9296 9.33102C31.5644 9.60723 32.2326 9.79962 32.9313 9.90969L33.2425 7.93406ZM31.7276 7.4971C31.2524 7.29036 30.844 7.04013 30.4954 6.7502L29.2165 8.28789C29.7227 8.7089 30.2961 9.05534 30.9296 9.33102L31.7276 7.4971ZM30.5036 6.7571C30.1622 6.46691 29.908 6.15786 29.7264 5.83227L27.9797 6.8064C28.289 7.36102 28.7034 7.85177 29.2083 8.28098L30.5036 6.7571ZM27.9797 5.83227C27.7993 6.15567 27.5446 6.4638 27.1998 6.75394L28.4877 8.28415C28.9977 7.85488 29.4159 7.36321 29.7264 6.8064L27.9797 5.83227ZM27.2006 6.75334C26.8564 7.04243 26.4526 7.29199 25.9822 7.49823L26.7853 9.3299C27.4152 9.05372 27.9847 8.70659 28.4869 8.28475L27.2006 6.75334ZM25.9882 7.49565C25.5161 7.69901 25.0108 7.84616 24.4696 7.93512L24.794 9.90863C25.4885 9.79447 26.1512 9.60307 26.7794 9.33247L25.9882 7.49565ZM25.5308 8.48391L25.0484 7.49367L23.2504 8.36961L23.7328 9.35984L25.5308 8.48391ZM24.2805 8.92302C25.1223 8.81174 25.9118 8.5726 26.6415 8.20033L25.7325 6.41881C25.2181 6.6813 24.6492 6.85688 24.0184 6.94026L24.2805 8.92302ZM26.6415 8.20033C27.3655 7.83093 27.9795 7.36079 28.4511 6.77528L26.8936 5.52062C26.6289 5.84917 26.2526 6.15345 25.7325 6.41881L26.6415 8.20033ZM28.4539 6.77177C28.9367 6.16689 29.2246 5.47257 29.2246 4.70703H27.2246C27.2246 4.94019 27.1443 5.20648 26.8908 5.52413L28.4539 6.77177ZM29.2246 4.70703V4.08496H27.2246V4.70703H29.2246ZM28.2246 5.08496H29.4814V3.08496H28.2246V5.08496ZM28.4814 4.08496V4.70703H30.4814V4.08496H28.4814ZM23.6543 11.0391H34.0264V9.03906H23.6543V11.0391ZM33.0264 10.0391V11.0293H35.0264V10.0391H33.0264ZM34.0264 10.0293H29.4053V12.0293H34.0264V10.0293ZM28.4053 11.0293V15.0791H30.4053V11.0293H28.4053ZM29.4053 14.0791H28.2246V16.0791H29.4053V14.0791ZM29.2246 15.0791V11.0293H27.2246V15.0791H29.2246ZM28.2246 10.0293H23.6543V12.0293H28.2246V10.0293ZM24.6543 11.0293V10.0391H22.6543V11.0293H24.6543Z" fill="#79A1E6" mask="url(#path-3-inside-1_152_2027)"/>
</svg>
