<svg width="32" height="35" viewBox="0 0 32 35" fill="none" xmlns="http://www.w3.org/2000/svg">
<g clip-path="url(#clip0_338_2070)">
<path d="M0 17.0971V27.5815C0 28.9663 0.165767 30.3086 0.815023 31.5591C1.90632 33.6716 3.97151 34.8938 6.28534 34.9644C7.95683 35.0139 9.63522 34.9644 11.3067 34.9644C13.1094 34.9644 14.9122 34.9644 16.7149 34.9644C19.9197 34.9574 22.8897 33.8906 25.4107 31.8982C31.5718 27.0305 33.6093 17.6905 30.667 10.4065C28.9126 6.06154 25.915 2.62089 21.5981 0.882897C19.1047 -0.127397 16.4248 -0.000227305 13.7932 -0.000227305C11.6244 -0.000227305 9.54543 1.95678 9.64904 4.24584C9.75264 6.5349 11.4725 8.48483 13.7932 8.48483H16.1761C16.4317 8.48483 16.6872 8.48483 16.9428 8.48483C17.2329 8.48483 17.523 8.51309 17.8131 8.52722C18.4761 8.56255 17.3918 8.47777 17.3503 8.46364C17.5368 8.54135 17.7785 8.54135 17.9788 8.59081C18.3242 8.67559 18.6626 8.79569 19.0011 8.90167C19.2981 8.99352 19.5467 9.25492 18.6074 8.71798C18.7317 8.78863 18.8698 8.83808 18.9942 8.90167C19.2843 9.04297 19.5605 9.20546 19.8368 9.37502C19.9888 9.47393 20.1407 9.57284 20.2858 9.67175C20.6035 9.89783 20.866 10.3641 20.1407 9.53752C20.5759 10.0391 21.1284 10.4348 21.5636 10.9435C21.6534 11.0494 21.75 11.2049 21.8537 11.2967C21.2389 10.7668 21.4116 10.675 21.6188 10.9858C21.826 11.2967 22.054 11.6288 22.2474 11.9608C22.4407 12.2929 22.6341 12.6532 22.7999 13.0064C22.869 13.1477 22.9242 13.3032 23.0002 13.4445C22.5029 12.5048 22.7585 12.8298 22.8552 13.1053C23.1245 13.8966 23.3732 14.6738 23.532 15.5004C23.5666 15.6699 23.5942 15.8324 23.6218 16.002C23.7531 16.7156 23.5666 15.7123 23.5804 15.6417C23.5113 16.002 23.6633 16.5743 23.6771 16.9487C23.6978 17.6552 23.6564 18.3546 23.608 19.0611C23.5528 19.9655 23.7531 18.2416 23.6426 18.8351C23.6011 19.047 23.5735 19.2519 23.532 19.4638C23.4699 19.7959 23.3939 20.1209 23.3041 20.4459C23.2005 20.8415 23.0762 21.2372 22.938 21.6257C22.8828 21.7812 22.8137 21.9295 22.7654 22.085C23.1384 20.9404 22.9311 21.6752 22.7999 21.9578C22.496 22.5936 22.1437 23.2083 21.7501 23.7947C21.6672 23.9148 21.5567 24.042 21.4807 24.1691C21.9573 23.3143 21.9227 23.611 21.7086 23.8512C21.4323 24.1621 21.1699 24.4729 20.8729 24.7626C20.6518 24.9816 20.3272 25.1865 20.1338 25.4338C20.1684 25.3914 20.9903 24.812 20.4515 25.1724C20.3341 25.2501 20.2167 25.3419 20.0924 25.4196C19.7954 25.6175 19.4846 25.8082 19.1668 25.9707C19.0425 26.0343 18.9113 26.0979 18.7801 26.1615C18.0755 26.5288 19.7401 25.8294 18.9804 26.0625C18.711 26.1473 18.4416 26.2462 18.1653 26.324C17.7302 26.437 16.6665 26.4229 17.9996 26.4158C17.6128 26.4158 17.226 26.4794 16.8392 26.4794C15.3887 26.4935 13.9314 26.4794 12.4809 26.4794H6.95532C6.74811 26.4794 6.53399 26.4653 6.31988 26.4794C6.27844 26.4794 6.23009 26.4723 6.18865 26.4794C6.18865 26.4794 6.18174 26.4794 6.17483 26.4794C6.53399 26.4653 6.86553 26.543 7.16944 26.7196C7.5286 26.8962 7.57004 26.9103 7.29376 26.7549C7.68055 27.0022 7.94992 27.2777 8.17785 27.6734C7.77725 26.981 8.37816 28.5 8.25383 27.956C8.1295 27.412 8.25383 29.1217 8.27455 28.2103C8.27455 28.0619 8.27455 27.9206 8.27455 27.7723V17.0829C8.27455 14.8645 6.36823 12.738 4.13037 12.8439C1.89251 12.9499 0 14.7232 0 17.0971Z" fill="url(#paint0_linear_338_2070)"/>
<path d="M-0.000104063 17.0973V24.565C-0.000104063 25.7307 -0.00701103 26.8964 -0.000104063 28.0622C0.0413378 31.6936 2.51403 34.8516 6.19545 34.9647C8.6267 35.0424 11.0649 34.9647 13.4961 34.9647C14.6012 34.9647 15.7063 34.9647 16.8115 34.9647C19.1184 34.9576 21.3148 34.3783 23.3662 33.2973C28.9401 30.3583 31.9792 23.7101 31.9792 17.4859C31.9792 15.2674 30.0728 13.1409 27.835 13.2469C25.5971 13.3528 23.6908 15.112 23.6908 17.4859C23.6908 17.9733 23.6701 18.4538 23.6286 18.9342C23.6148 19.0613 23.5872 19.1956 23.5872 19.3228C23.5872 19.351 23.7392 18.369 23.6494 18.8353C23.5872 19.1673 23.5319 19.5064 23.4629 19.8385C23.3455 20.3684 23.2004 20.8841 23.0277 21.3999C22.9518 21.633 22.8413 21.8591 22.7722 22.0852C22.7929 22.0216 23.2073 21.1173 22.9034 21.739C22.8343 21.8803 22.7722 22.0286 22.6962 22.1699C22.4683 22.6292 22.2196 23.0743 21.9433 23.4982C21.819 23.6889 21.674 23.8797 21.5496 24.0704C21.3217 24.4378 21.8743 23.6536 21.8536 23.6677C21.7223 23.7666 21.6049 23.9786 21.4875 24.1058C21.1698 24.4731 20.8313 24.8193 20.4722 25.1443C20.3893 25.215 20.2995 25.2856 20.2235 25.3633C19.9265 25.6601 20.6656 25.0313 20.6379 25.0454C20.3893 25.1796 20.1683 25.3916 19.9265 25.547C19.5328 25.8014 19.1115 25.9921 18.704 26.2182C18.331 26.4231 19.2427 25.9921 19.2013 25.9992C19.1046 26.0133 18.9941 26.084 18.9043 26.1122C18.6349 26.197 18.3655 26.2888 18.0893 26.3595C17.882 26.4089 17.661 26.4372 17.4607 26.4937C17.0601 26.6138 18.0685 26.4231 18.0271 26.4231C17.889 26.4231 17.7301 26.4584 17.592 26.4655C17.3571 26.4796 17.1154 26.4867 16.8805 26.4867C16.0103 26.4867 15.1469 26.4867 14.2766 26.4867C11.6865 26.4867 9.08947 26.416 6.50626 26.4867C6.45101 26.4867 6.27833 26.4513 6.22998 26.4867H6.19545C6.16091 26.3524 7.61138 26.9388 7.48705 26.8682C7.01738 26.5856 7.74952 27.0872 7.81859 27.1578C7.79787 27.1366 8.31589 27.9632 8.1294 27.5817C7.9291 27.179 8.31589 28.1328 8.30208 28.0763C8.10177 27.3557 8.26754 29.0159 8.28826 28.2317C8.28826 28.1681 8.28826 28.0975 8.28826 28.0339C8.28135 27.0165 8.28826 25.9921 8.28826 24.9747V17.0902C8.28826 14.8718 6.38194 12.7452 4.14408 12.8512C1.90622 12.9572 -0.000104063 14.7234 -0.000104063 17.0973Z" fill="url(#paint1_linear_338_2070)"/>
<path d="M0 17.0973V27.6241C0 29.0159 0.207209 30.3371 0.835744 31.6017C1.8856 33.7212 4.09583 34.9364 6.36823 34.9647C8.14332 34.9859 9.92532 34.9647 11.7004 34.9647H16.9359C19.1047 34.9647 21.1837 33.0147 21.0801 30.7257C20.9765 28.4366 19.2566 26.4867 16.9359 26.4867H11.5001C9.68357 26.4867 7.84632 26.5644 6.02979 26.4796L7.1349 26.628C6.96223 26.5997 6.81718 26.5644 6.65832 26.5079L7.64602 26.9318C7.48716 26.8611 7.35592 26.7834 7.21088 26.6845L8.04662 27.3486C7.86704 27.2002 7.71509 27.0377 7.57004 26.854L8.2193 27.7089C8.11569 27.5535 8.03281 27.4051 7.95683 27.2355L8.37125 28.2458C8.27455 27.9986 8.21239 27.7654 8.17095 27.504L8.31599 28.6344C8.25383 27.9844 8.28837 27.3203 8.28837 26.6633V17.0902C8.28837 14.8718 6.38204 12.7452 4.14418 12.8512C1.90632 12.9572 0 14.7234 0 17.0973Z" fill="#2A5FC5"/>
<path opacity="0.5" d="M4.15105 8.46393C6.42838 8.46393 8.27451 6.57555 8.27451 4.24612C8.27451 1.9167 6.42838 0.0283203 4.15105 0.0283203C1.87373 0.0283203 0.0275879 1.9167 0.0275879 4.24612C0.0275879 6.57555 1.87373 8.46393 4.15105 8.46393Z" fill="#79A1E6"/>
</g>
<defs>
<linearGradient id="paint0_linear_338_2070" x1="16.0035" y1="2.83284" x2="16.0035" y2="32.1384" gradientUnits="userSpaceOnUse">
<stop stop-color="#EBF1FA"/>
<stop offset="1" stop-color="#2A5FC5"/>
</linearGradient>
<linearGradient id="paint1_linear_338_2070" x1="15.9895" y1="17.0973" x2="15.9895" y2="32.1387" gradientUnits="userSpaceOnUse">
<stop stop-color="#79A1E6"/>
<stop offset="1" stop-color="#2A5FC5"/>
</linearGradient>
<clipPath id="clip0_338_2070">
<rect width="32" height="35" fill="white"/>
</clipPath>
</defs>
</svg>
